<svg version="1.1" width="720" height="720" xmlns="http://www.w3.org/2000/svg">
  <rect x="0" y="0" width="72" height="72" fill="transparent" id="00" />
  <rect x="72" y="0" width="72" height="72" fill="transparent" id="01" />
  <rect x="144" y="0" width="72" height="72" fill="transparent" id="02" />
  <rect x="216" y="0" width="72" height="72" fill="transparent" id="03" />
  <rect x="288" y="0" width="72" height="72" fill="transparent" id="04" />
  <rect x="360" y="0" width="72" height="72" fill="transparent" id="05" />
  <rect x="432" y="0" width="72" height="72" fill="transparent" id="06" />
  <rect x="504" y="0" width="72" height="72" fill="transparent" id="07" />
  <rect x="576" y="0" width="72" height="72" fill="transparent" id="08" />
  <rect x="648" y="0" width="72" height="72" fill="transparent" id="09" />
  <rect x="0" y="72" width="72" height="72" fill="transparent" id="10" />
  <rect x="72" y="72" width="72" height="72" fill="transparent" id="11" />
  <rect x="144" y="72" width="72" height="72" fill="transparent" id="12" />
  <rect x="216" y="72" width="72" height="72" fill="transparent" id="13" />
  <rect x="288" y="72" width="72" height="72" fill="transparent" id="14" />
  <rect x="360" y="72" width="72" height="72" fill="transparent" id="15" />
  <rect x="432" y="72" width="72" height="72" fill="transparent" id="16" />
  <rect x="504" y="72" width="72" height="72" fill="transparent" id="17" />
  <rect x="576" y="72" width="72" height="72" fill="transparent" id="18" />
  <rect x="648" y="72" width="72" height="72" fill="transparent" id="19" />
  <rect x="0" y="144" width="72" height="72" fill="transparent" id="20" />
  <rect x="72" y="144" width="72" height="72" fill="transparent" id="21" />
  <rect x="144" y="144" width="72" height="72" fill="black" id="22" />
  <rect x="216" y="144" width="72" height="72" fill="transparent" id="23" />
  <rect x="288" y="144" width="72" height="72" fill="transparent" id="24" />
  <rect x="360" y="144" width="72" height="72" fill="black" id="25" />
  <rect x="432" y="144" width="72" height="72" fill="transparent" id="26" />
  <rect x="504" y="144" width="72" height="72" fill="black" id="27" />
  <rect x="576" y="144" width="72" height="72" fill="transparent" id="28" />
  <rect x="648" y="144" width="72" height="72" fill="transparent" id="29" />
  <rect x="0" y="216" width="72" height="72" fill="transparent" id="30" />
  <rect x="72" y="216" width="72" height="72" fill="transparent" id="31" />
  <rect x="144" y="216" width="72" height="72" fill="black" id="32" />
  <rect x="216" y="216" width="72" height="72" fill="transparent" id="33" />
  <rect x="288" y="216" width="72" height="72" fill="transparent" id="34" />
  <rect x="360" y="216" width="72" height="72" fill="black" id="35" />
  <rect x="432" y="216" width="72" height="72" fill="transparent" id="36" />
  <rect x="504" y="216" width="72" height="72" fill="black" id="37" />
  <rect x="576" y="216" width="72" height="72" fill="transparent" id="38" />
  <rect x="648" y="216" width="72" height="72" fill="transparent" id="39" />
  <rect x="0" y="288" width="72" height="72" fill="transparent" id="40" />
  <rect x="72" y="288" width="72" height="72" fill="transparent" id="41" />
  <rect x="144" y="288" width="72" height="72" fill="black" id="42" />
  <rect x="216" y="288" width="72" height="72" fill="transparent" id="43" />
  <rect x="288" y="288" width="72" height="72" fill="black" id="44" />
  <rect x="360" y="288" width="72" height="72" fill="transparent" id="45" />
  <rect x="432" y="288" width="72" height="72" fill="black" id="46" />
  <rect x="504" y="288" width="72" height="72" fill="transparent" id="47" />
  <rect x="576" y="288" width="72" height="72" fill="transparent" id="48" />
  <rect x="648" y="288" width="72" height="72" fill="transparent" id="49" />
  <rect x="0" y="360" width="72" height="72" fill="transparent" id="50" />
  <rect x="72" y="360" width="72" height="72" fill="transparent" id="51" />
  <rect x="144" y="360" width="72" height="72" fill="black" id="52" />
  <rect x="216" y="360" width="72" height="72" fill="transparent" id="53" />
  <rect x="288" y="360" width="72" height="72" fill="black" id="54" />
  <rect x="360" y="360" width="72" height="72" fill="transparent" id="55" />
  <rect x="432" y="360" width="72" height="72" fill="black" id="56" />
  <rect x="504" y="360" width="72" height="72" fill="transparent" id="57" />
  <rect x="576" y="360" width="72" height="72" fill="transparent" id="58" />
  <rect x="648" y="360" width="72" height="72" fill="transparent" id="59" />
  <rect x="0" y="432" width="72" height="72" fill="transparent" id="60" />
  <rect x="72" y="432" width="72" height="72" fill="transparent" id="61" />
  <rect x="144" y="432" width="72" height="72" fill="black" id="62" />
  <rect x="216" y="432" width="72" height="72" fill="black" id="63" />
  <rect x="288" y="432" width="72" height="72" fill="transparent" id="64" />
  <rect x="360" y="432" width="72" height="72" fill="black" id="65" />
  <rect x="432" y="432" width="72" height="72" fill="transparent" id="66" />
  <rect x="504" y="432" width="72" height="72" fill="transparent" id="67" />
  <rect x="576" y="432" width="72" height="72" fill="transparent" id="68" />
  <rect x="648" y="432" width="72" height="72" fill="transparent" id="69" />
  <rect x="0" y="504" width="72" height="72" fill="transparent" id="70" />
  <rect x="72" y="504" width="72" height="72" fill="transparent" id="71" />
  <rect x="144" y="504" width="72" height="72" fill="black" id="72" />
  <rect x="216" y="504" width="72" height="72" fill="black" id="73" />
  <rect x="288" y="504" width="72" height="72" fill="transparent" id="74" />
  <rect x="360" y="504" width="72" height="72" fill="black" id="75" />
  <rect x="432" y="504" width="72" height="72" fill="black" id="76" />
  <rect x="504" y="504" width="72" height="72" fill="black" id="77" />
  <rect x="576" y="504" width="72" height="72" fill="transparent" id="78" />
  <rect x="648" y="504" width="72" height="72" fill="transparent" id="79" />
  <rect x="0" y="576" width="72" height="72" fill="transparent" id="80" />
  <rect x="72" y="576" width="72" height="72" fill="transparent" id="81" />
  <rect x="144" y="576" width="72" height="72" fill="transparent" id="82" />
  <rect x="216" y="576" width="72" height="72" fill="transparent" id="83" />
  <rect x="288" y="576" width="72" height="72" fill="transparent" id="84" />
  <rect x="360" y="576" width="72" height="72" fill="transparent" id="85" />
  <rect x="432" y="576" width="72" height="72" fill="transparent" id="86" />
  <rect x="504" y="576" width="72" height="72" fill="transparent" id="87" />
  <rect x="576" y="576" width="72" height="72" fill="transparent" id="88" />
  <rect x="648" y="576" width="72" height="72" fill="transparent" id="89" />
  <rect x="0" y="648" width="72" height="72" fill="transparent" id="90" />
  <rect x="72" y="648" width="72" height="72" fill="transparent" id="91" />
  <rect x="144" y="648" width="72" height="72" fill="transparent" id="92" />
  <rect x="216" y="648" width="72" height="72" fill="transparent" id="93" />
  <rect x="288" y="648" width="72" height="72" fill="transparent" id="94" />
  <rect x="360" y="648" width="72" height="72" fill="transparent" id="95" />
  <rect x="432" y="648" width="72" height="72" fill="transparent" id="96" />
  <rect x="504" y="648" width="72" height="72" fill="transparent" id="97" />
  <rect x="576" y="648" width="72" height="72" fill="transparent" id="98" />
  <rect x="648" y="648" width="72" height="72" fill="transparent" id="99" />
</svg>